<svg width="24" height="24" viewBox="0 0 40 40" fill="none" xmlns="http://www.w3.org/2000/svg">
<path d="M26.1096 6.47981C25.6652 4.90453 24.2174 3.75 22.5 3.75H17.5C15.7826 3.75 14.3348 4.90453 13.8904 6.47981M26.1096 6.47981C26.2011 6.80417 26.25 7.14637 26.25 7.5V7.5C26.25 8.19036 25.6904 8.75 25 8.75H15C14.3096 8.75 13.75 8.19036 13.75 7.5V7.5C13.75 7.14637 13.7989 6.80417 13.8904 6.47981M26.1096 6.47981C27.1865 6.56114 28.2576 6.66379 29.3222 6.78735C31.1565 7.00023 32.5 8.58167 32.5 10.4283V32.5C32.5 34.5711 30.8211 36.25 28.75 36.25H11.25C9.17893 36.25 7.5 34.5711 7.5 32.5V10.4283C7.5 8.58167 8.84347 7.00023 10.6778 6.78735C11.7424 6.66379 12.8135 6.56114 13.8904 6.47981" stroke="#2B1887" stroke-width="2.5" stroke-linecap="round" stroke-linejoin="round"/>
</svg>
