<svg xmlns="http://www.w3.org/2000/svg" width="25" height="24" viewBox="0 0 41 40" fill="none">
    <path d="M17.375 3.75H9.875C8.83947 3.75 8 4.58947 8 5.625V34.375C8 35.4105 8.83947 36.25 9.875 36.25H31.125C32.1605 36.25 33 35.4105 33 34.375V19.375M17.375 3.75H18C26.2843 3.75 33 10.4657 33 18.75V19.375M17.375 3.75C20.4816 3.75 23 6.2684 23 9.375V11.875C23 12.9105 23.8395 13.75 24.875 13.75H27.375C30.4816 13.75 33 16.2684 33 19.375" stroke="#2B1887" stroke-width="2.5" stroke-linecap="round" stroke-linejoin="round"/>
    <path d="M20 28L23 31L26 28" stroke="#2B1887" stroke-width="2.5" stroke-linecap="round" stroke-linejoin="round"/>
    <path d="M20 20L23 23L26 20" stroke="#2B1887" stroke-width="2.5" stroke-linecap="round" stroke-linejoin="round"/>
</svg>
